<?xml version="1.0" encoding="UTF-8"?>
<svg version="1.1" xmlns="http://www.w3.org/2000/svg" width="396" height="61">
<path d="M0 0 C130.68 0 261.36 0 396 0 C396 20.13 396 40.26 396 61 C265.32 61 134.64 61 0 61 C0 40.87 0 20.74 0 0 Z " fill="#FDFDFE" transform="translate(0,0)"/>
<path d="M0 0 C18.69885098 -0.62853281 18.69885098 -0.62853281 25 4 C28.19454355 7.35037494 29.2488514 9.97171465 29.5 14.5 C29.29001113 18.9547639 27.93174618 21.57962946 25 25 C21.45157742 28.11831075 18.45663611 29.13089813 13.76953125 29.09765625 C13.04612549 29.09515869 12.32271973 29.09266113 11.57739258 29.09008789 C10.66497803 29.08098389 9.75256348 29.07187988 8.8125 29.0625 C5.904375 29.041875 2.99625 29.02125 0 29 C0 19.43 0 9.86 0 0 Z " fill="#283AB2" transform="translate(24,18)"/>
<path d="M0 0 C4.46159282 2.56479735 7.09490562 5.05080269 8.67578125 10.08984375 C9.37223044 14.48893423 9.06021418 17.32097789 7.05078125 21.33984375 C3.64763595 25.28032778 1.16317127 27.75500279 -4.16796875 28.47265625 C-9.02380746 28.65294729 -12.45625861 28.50098277 -16.88671875 26.40234375 C-21.15396176 22.35393372 -22.52488982 19.59255369 -22.88671875 13.71484375 C-22.75650827 8.63663505 -21.52360112 6.040721 -18.02734375 2.4296875 C-12.71312197 -1.75099615 -6.32213693 -2.47572757 0 0 Z " fill="#2335B0" transform="translate(81.32421875,18.91015625)"/>
<path d="M0 0 C4.16862828 2.84224656 7.24056914 5.19052086 8.19921875 10.2421875 C8.46415861 16.25358147 7.43680223 20.12096554 3.75 24.875 C-0.79696035 28.39889427 -5.75597002 28.49791068 -11.33203125 28.359375 C-15.91740347 27.59821549 -18.44851742 25.48675754 -21.25 21.875 C-23.6600947 17.89310441 -24.08891396 13.43281087 -23.25 8.875 C-21.42082108 4.92617169 -19.03920977 2.43103416 -15.5 -0.0625 C-10.06699685 -1.83867411 -5.4083122 -1.87210807 0 0 Z " fill="#2235B0" transform="translate(197.25,19.125)"/>
<path d="M0 0 C6 0 6 0 7.65917969 1.25341797 C8.07586914 1.82721191 8.49255859 2.40100586 8.921875 2.9921875 C9.38980469 3.61480469 9.85773438 4.23742187 10.33984375 4.87890625 C11.03787109 5.86697266 11.03787109 5.86697266 11.75 6.875 C12.7024745 8.16454322 13.65557345 9.45362551 14.609375 10.7421875 C15.2276416 11.60626221 15.2276416 11.60626221 15.85839844 12.48779297 C17.06073022 14.15293573 17.06073022 14.15293573 19 16 C19.33 11.05 19.66 6.1 20 1 C21.98 1 23.96 1 26 1 C26 10.24 26 19.48 26 29 C20 29 20 29 17.8046875 26.98828125 C17.16789062 26.10527344 16.53109375 25.22226562 15.875 24.3125 C15.23304688 23.44238281 14.59109375 22.57226562 13.9296875 21.67578125 C12.97449219 20.35126953 12.97449219 20.35126953 12 19 C10.68 17.35 9.36 15.7 8 14 C7.67 18.95 7.34 23.9 7 29 C4.69 29 2.38 29 0 29 C0 19.43 0 9.86 0 0 Z " fill="#2234AF" transform="translate(248,18)"/>
<path d="M0 0 C2.31 0 4.62 0 7 0 C7 9.57 7 19.14 7 29 C1 29 1 29 -0.7668457 27.74658203 C-1.23179443 27.17278809 -1.69674316 26.59899414 -2.17578125 26.0078125 C-2.69333984 25.38519531 -3.21089844 24.76257813 -3.74414062 24.12109375 C-4.52047852 23.13302734 -4.52047852 23.13302734 -5.3125 22.125 C-5.84939453 21.47402344 -6.38628906 20.82304688 -6.93945312 20.15234375 C-10.76123681 15.47752638 -10.76123681 15.47752638 -12 13 C-12.33 18.28 -12.66 23.56 -13 29 C-14.98 29 -16.96 29 -19 29 C-19 19.76 -19 10.52 -19 1 C-13 1 -13 1 -11.32495117 2.16162109 C-10.90189697 2.69352051 -10.47884277 3.22541992 -10.04296875 3.7734375 C-9.57052734 4.3509375 -9.09808594 4.9284375 -8.61132812 5.5234375 C-8.14146484 6.13445313 -7.67160156 6.74546875 -7.1875 7.375 C-6.69830078 7.97828125 -6.20910156 8.5815625 -5.70507812 9.203125 C-2.24463427 13.51073146 -2.24463427 13.51073146 -1 16 C-0.67 10.72 -0.34 5.44 0 0 Z " fill="#2234AF" transform="translate(232,18)"/>
<path d="M0 0 C7.26 0 14.52 0 22 0 C22 1.98 22 3.96 22 6 C17.05 6 12.1 6 7 6 C7 7.98 7 9.96 7 12 C11.29 12 15.58 12 20 12 C20 13.65 20 15.3 20 17 C15.71 17 11.42 17 7 17 C7 19.31 7 21.62 7 24 C11.95 24 16.9 24 22 24 C22 25.65 22 27.3 22 29 C14.74 29 7.48 29 0 29 C0 19.43 0 9.86 0 0 Z " fill="#2739B1" transform="translate(283,18)"/>
<path d="M0 0 C0.804375 0.495 1.60875 0.99 2.4375 1.5 C2.4375 2.82 2.4375 4.14 2.4375 5.5 C1.4475 6.16 0.4575 6.82 -0.5625 7.5 C-1.5525 6.84 -2.5425 6.18 -3.5625 5.5 C-9.1312824 4.91115192 -9.1312824 4.91115192 -14.0625 7.0625 C-16.17256839 10.49136114 -16.18741523 12.54220351 -15.5625 16.5 C-13.58283737 19.56307631 -13.58283737 19.56307631 -10.5625 21.5 C-7.08339775 22.00736908 -5.11267478 21.73030572 -1.875 20.375 C-1.111875 20.08625 -0.34875 19.7975 0.4375 19.5 C1.4275 20.16 2.4175 20.82 3.4375 21.5 C3.4375 22.49 3.4375 23.48 3.4375 24.5 C-2.02588619 28.04381807 -7.24882112 28.34558199 -13.5625 27.5 C-18.93352439 24.91039895 -20.97923717 21.66652566 -23.5625 16.5 C-24.0473145 11.55489208 -23.53714442 8.19883609 -20.8828125 4.078125 C-15.40692695 -2.46701631 -7.57042649 -3.187548 0 0 Z " fill="#2336B0" transform="translate(334.5625,19.5)"/>
<path d="M0 0 C0.804375 0.495 1.60875 0.99 2.4375 1.5 C2.4375 2.82 2.4375 4.14 2.4375 5.5 C1.4475 6.16 0.4575 6.82 -0.5625 7.5 C-1.5525 6.84 -2.5425 6.18 -3.5625 5.5 C-9.1312824 4.91115192 -9.1312824 4.91115192 -14.0625 7.0625 C-16.17256839 10.49136114 -16.18741523 12.54220351 -15.5625 16.5 C-13.58283737 19.56307631 -13.58283737 19.56307631 -10.5625 21.5 C-7.08339775 22.00736908 -5.11267478 21.73030572 -1.875 20.375 C-1.111875 20.08625 -0.34875 19.7975 0.4375 19.5 C1.4275 20.16 2.4175 20.82 3.4375 21.5 C3.4375 22.49 3.4375 23.48 3.4375 24.5 C-2.02588619 28.04381807 -7.24882112 28.34558199 -13.5625 27.5 C-18.93352439 24.91039895 -20.97923717 21.66652566 -23.5625 16.5 C-24.0473145 11.55489208 -23.53714442 8.19883609 -20.8828125 4.078125 C-15.40692695 -2.46701631 -7.57042649 -3.187548 0 0 Z " fill="#2336B0" transform="translate(118.5625,19.5)"/>
<path d="M0 0 C2.40823788 1.09034392 3.95504966 2.27793655 6 4 C5.34 5.32 4.68 6.64 4 8 C1 8 1 8 -1 7 C-6.74459689 6.32573112 -6.74459689 6.32573112 -11.5625 9 C-13.46612435 12.97278125 -13.39358359 15.84622181 -12 20 C-9.78162907 22.62918036 -8.53164738 22.94221224 -5.125 23.3125 C-1.83083937 22.98308394 0.91367657 22.17574226 4 21 C4.99 22.32 5.98 23.64 7 25 C2.20814406 29.25942751 -1.81482299 29.61446113 -8.15234375 29.38671875 C-13.09991929 28.71482578 -15.61830178 26.51986804 -18.875 22.9375 C-20.65845769 18.28069382 -20.87724305 13.90554312 -20 9 C-15.55457336 0.90040389 -8.82704832 -1.19359458 0 0 Z " fill="#2335B0" transform="translate(162,18)"/>
<path d="M0 0 C8.25 0 16.5 0 25 0 C25 1.98 25 3.96 25 6 C22.03 6 19.06 6 16 6 C16 13.59 16 21.18 16 29 C14.02 29 12.04 29 10 29 C10 21.41 10 13.82 10 6 C6.7 6 3.4 6 0 6 C0 4.02 0 2.04 0 0 Z " fill="#2739B1" transform="translate(342,18)"/>
<path d="M0 0 C3.75979392 1.05909688 5.09536663 3.27164342 6.94140625 6.546875 C7.09599881 10.9527629 6.39673365 12.91745183 3.81640625 16.484375 C0.94140625 18.546875 0.94140625 18.546875 -2.55859375 19.234375 C-6.33329711 18.49291541 -7.9344932 17.47978573 -10.171875 14.328125 C-11.74057015 11.17691359 -11.68021869 8.96581218 -11.05859375 5.546875 C-8.03424088 1.10485672 -5.24298936 -0.35815487 0 0 Z " fill="#F7F8FC" transform="translate(192.05859375,23.453125)"/>
<path d="M0 0 C3.48825925 0.92832706 4.94573896 2.59022598 6.9375 5.515625 C7.62901325 9.81837409 7.45307405 11.72507812 5.0625 15.390625 C2.55083682 17.90228818 1.64365837 18.43716296 -1.875 18.828125 C-5.94695382 18.42891384 -7.37071585 17.59194974 -10.0625 14.515625 C-11.38416881 11.08366731 -11.73314748 8.09715189 -10.27734375 4.6640625 C-7.46336834 0.63864682 -4.65344722 -0.38778727 0 0 Z " fill="#F7F8FC" transform="translate(76.0625,23.484375)"/>
<path d="M0 0 C9.76931447 -0.43743199 9.76931447 -0.43743199 14 3 C15.55024464 6.10048928 15.28992015 8.57894218 15 12 C13.6875 14.9375 13.6875 14.9375 11 17 C7.23178997 17.42290702 3.81354398 17.22699667 0 17 C0 11.39 0 5.78 0 0 Z " fill="#FCFCFE" transform="translate(31,24)"/>
</svg>
